<?xml version="1.0" encoding="utf-8"?>
<!-- Generator: Adobe Illustrator 16.0.0, SVG Export Plug-In . SVG Version: 6.00 Build 0)  -->
<!DOCTYPE svg PUBLIC "-//W3C//DTD SVG 1.1//EN" "http://www.w3.org/Graphics/SVG/1.1/DTD/svg11.dtd">
<svg version="1.1" id="图层_1" xmlns="http://www.w3.org/2000/svg" xmlns:xlink="http://www.w3.org/1999/xlink" x="0px" y="0px"
	 width="67px" height="50px" viewBox="0 0 67 50" enable-background="new 0 0 67 50" xml:space="preserve">
<g>
	<path fill-rule="evenodd" clip-rule="evenodd" fill="#040000" d="M11.332,37.772c2.806,2.217,6.483,0.794,8.836-0.765
		c0.894-0.594,1.997-1.218,2.657-2.045c1.92-2.407,3.803-5.741,4.647-9.092c0.656-2.598,1.163-5.869,1.175-8.224
		s-0.025-2.807-0.205-3.882c-0.697-4.191-0.84-8.838-5.669-8.785c-1.686,0-2.982,0.842-3.575,2.35
		c-0.562,1.426,0.972,3.222,2.502,2.911c0.55-0.112,0.936-0.457,1.379-0.664c1.907,1.457,3.065,6.819,2.503,10.932
		c-0.958,7.001-2.79,12.506-7.917,15.528c-5.041,2.971-7.792-2.537-3.831-5.465c0.479,0.714,0.752,1.387,1.583,1.737
		c3.902,1.642,6.603-3.148,3.474-4.905c-1.237-0.693-3.338-0.372-4.495,0.104c-2.551,1.05-5.431,3.45-4.546,7.508
		C10.108,36.202,10.532,37.141,11.332,37.772z M16.03,28.835c0.226-0.333,0.626-0.44,1.022-0.615
		c2.045-0.053,2.137,2.624,0.409,2.964C16.134,31.444,15.372,29.809,16.03,28.835z"/>
	<path fill-rule="evenodd" clip-rule="evenodd" fill="#040000" d="M13.681,13.51c0.818,0.658,1.497,1.619,2.146,2.452
		c1.318,1.691,2.716,3.301,3.831,5.21c0.36,0.617,1.332,3.282,1.941,3.371c0.034-0.051,0.068-0.103,0.102-0.154
		c0.412-1.097-1.274-5.584-1.634-6.436C18.079,13.258,14.23,6.746,7.602,6.818c-0.715,0.154-1.43,0.307-2.146,0.46
		c-1.603,0.628-5.054,3.491-2.605,5.313C3.888,13.361,6.12,13.813,7.448,13c0.611-0.374,0.869-0.893,1.738-1.073
		C11.193,11.51,12.67,12.698,13.681,13.51z"/>
	<path fill-rule="evenodd" clip-rule="evenodd" fill="#040000" d="M54.238,30.826c4.387-1.883,9.205,3.19,11.492,4.903
		c-0.078-1.508-1.771-2.728-2.707-3.473c-3.168-2.528-6.438-4.24-12.361-4.138c-0.664,0.118-1.326,0.238-1.99,0.356
		c-1.178,0.353-2.34,0.842-3.322,1.432c-0.816,0.578-1.633,1.157-2.451,1.736c-0.461,0.427-0.92,0.85-1.379,1.277
		c-0.887,0.886-1.77,1.771-2.656,2.656c-0.051,0.337,2.268,2.725,2.605,3.063c2.613,2.617,6.182,4.438,10.572,5.262
		c1.125,0.212,2.021-0.297,2.861-0.46c0-0.017,0-0.033,0-0.051c-1.963-0.369-4.316-0.661-5.211-2.093
		C47.232,37.348,51.771,31.886,54.238,30.826z M47.291,37.977c0.172,0.785,0.342,1.567,0.51,2.352
		c-0.969-0.526-2.336-1.255-3.012-2.096c-0.461-0.63-0.92-1.26-1.381-1.889c0.109-0.585,0.609-0.887,0.92-1.278
		c1.732-2.184,4.248-2.892,6.744-4.341c0.049,0,0.102,0,0.154,0C49.236,32.258,46.594,33.998,47.291,37.977z"/>
	<path fill-rule="evenodd" clip-rule="evenodd" fill="#040000" d="M38.658,31.745c-1.119-1.752-3.695-2.309-6.64-2.246
		c-0.647,0.118-1.294,0.238-1.941,0.356c-1.224,0.369-2.418,0.905-3.422,1.533c-1.598,0.997-2.393,2.325-3.525,3.778
		c-0.73,0.939-1.932,1.553-2.86,2.3c0.766-0.136,1.532-0.272,2.298-0.409c1.491-0.531,2.299-1.528,3.729-2.095
		c0.119,0.46,0.238,0.921,0.357,1.381c-1.277,0.646-2.555,1.293-3.831,1.94c-3.621,2.418-6.992,5.482-12.515,5.976
		c0.638,0.633,5.076,0.93,6.436,0.664c5.057-0.99,6.48-5.003,11.034-6.078c1.374-0.323,3.093,0.105,4.649-0.152
		c2.635-0.438,5.119-0.77,5.873-3.014c-1.77,0.887-6.293,1.969-8.581,0.664c-0.245-0.916-0.122-2.373-0.357-3.168
		c0.629-0.272,1.26-0.545,1.889-0.818C33.598,31.588,35.881,31.515,38.658,31.745z"/>
</g>
</svg>
